<svg width="61" height="61" viewBox="0 0 61 61" fill="none" xmlns="http://www.w3.org/2000/svg">
<path fill-rule="evenodd" clip-rule="evenodd" d="M24.2547 8.42256C23.6459 8.94138 23.3415 9.20083 23.0163 9.41873C22.2711 9.91823 21.4341 10.2649 20.5539 10.4387C20.17 10.5145 19.7713 10.5463 18.9739 10.6099C16.9704 10.7698 15.9687 10.8498 15.133 11.145C13.2 11.8277 11.6795 13.3482 10.9968 15.2812C10.7016 16.1169 10.6216 17.1186 10.4617 19.1221C10.3981 19.9195 10.3663 20.3182 10.2905 20.7021C10.1167 21.5823 9.77004 22.4193 9.27054 23.1645C9.05264 23.4897 8.79321 23.7941 8.27436 24.4029C6.97076 25.9326 6.31894 26.6974 5.93674 27.4971C5.05266 29.3469 5.05266 31.4969 5.93674 33.3466C6.31896 34.1464 6.97076 34.9111 8.27436 36.4409C8.79314 37.0496 9.05264 37.3541 9.27054 37.6791C9.77004 38.4244 10.1167 39.2614 10.2905 40.1416C10.3663 40.5256 10.3981 40.9244 10.4617 41.7216C10.6216 43.7251 10.7016 44.7269 10.9968 45.5626C11.6795 47.4956 13.2 49.0161 15.133 49.6989C15.9687 49.9939 16.9704 50.0739 18.9739 50.2339C19.7713 50.2974 20.17 50.3294 20.5539 50.4051C21.4341 50.5789 22.2711 50.9256 23.0163 51.4251C23.3415 51.6429 23.6459 51.9024 24.2547 52.4211C25.7844 53.7249 26.5492 54.3766 27.3489 54.7589C29.1987 55.6429 31.3487 55.6429 33.1984 54.7589C33.9982 54.3766 34.7629 53.7249 36.2927 52.4211C36.9014 51.9024 37.2059 51.6429 37.5309 51.4251C38.2762 50.9256 39.1132 50.5789 39.9934 50.4051C40.3774 50.3294 40.7762 50.2974 41.5734 50.2339C43.5769 50.0739 44.5787 49.9939 45.4144 49.6989C47.3474 49.0161 48.8679 47.4956 49.5507 45.5626C49.8457 44.7269 49.9257 43.7251 50.0857 41.7216C50.1492 40.9244 50.1812 40.5256 50.2569 40.1416C50.4307 39.2614 50.7774 38.4244 51.2769 37.6791C51.4947 37.3541 51.7542 37.0496 52.2729 36.4409C53.5767 34.9111 54.2284 34.1464 54.6107 33.3466C55.4947 31.4969 55.4947 29.3469 54.6107 27.4971C54.2284 26.6974 53.5767 25.9326 52.2729 24.4029C51.7542 23.7941 51.4947 23.4897 51.2769 23.1645C50.7774 22.4193 50.4307 21.5823 50.2569 20.7021C50.1812 20.3182 50.1492 19.9195 50.0857 19.1221C49.9257 17.1186 49.8457 16.1169 49.5507 15.2812C48.8679 13.3482 47.3474 11.8277 45.4144 11.145C44.5787 10.8498 43.5769 10.7698 41.5734 10.6099C40.7762 10.5463 40.3774 10.5145 39.9934 10.4387C39.1132 10.2649 38.2762 9.91823 37.5309 9.41873C37.2059 9.20083 36.9014 8.94141 36.2927 8.42256C34.7629 7.11896 33.9982 6.46716 33.1984 6.08493C31.3487 5.20086 29.1987 5.20086 27.3489 6.08493C26.5492 6.46713 25.7844 7.11896 24.2547 8.42256ZM41.2074 25.0797C42.0019 24.2851 42.0019 22.9969 41.2074 22.2023C40.4129 21.4077 39.1244 21.4077 38.3299 22.2023L26.2044 34.3279L22.2173 30.3409C21.4228 29.5464 20.1345 29.5464 19.3399 30.3409C18.5453 31.1354 18.5453 32.4236 19.3399 33.2184L24.7656 38.6441C25.5602 39.4386 26.8484 39.4386 27.6432 38.6441L41.2074 25.0797Z" fill="#0072F8"/>
</svg>
